{
    "asset" : {
        "generator" : "Khronos glTF Blender I/O v3.2.43",
        "version" : "2.0"
    },
    "scene" : 0,
    "scenes" : [
        {
            "name" : "Scene",
            "nodes" : [
                0
            ]
        }
    ],
    "nodes" : [
        {
            "mesh" : 0,
            "name" : "TrashTruck",
            "scale" : [
                1.768841028213501,
                1.768841028213501,
                1.768841028213501
            ],
            "translation" : [
                0,
                0.7639390230178833,
                0
            ]
        }
    ],
    "materials" : [
        {
            "doubleSided" : true,
            "name" : "colormap.008",
            "pbrMetallicRoughness" : {
                "baseColorTexture" : {
                    "index" : 0
                },
                "metallicFactor" : 0
            }
        }
    ],
    "meshes" : [
        {
            "name" : "arm",
            "primitives" : [
                {
                    "attributes" : {
                        "POSITION" : 0,
                        "NORMAL" : 1,
                        "TEXCOORD_0" : 2
                    },
                    "indices" : 3,
                    "material" : 0
                }
            ]
        }
    ],
    "textures" : [
        {
            "sampler" : 0,
            "source" : 0
        }
    ],
    "images" : [
        {
            "mimeType" : "image/png",
            "name" : "colormap",
            "uri" : "colormap.png"
        }
    ],
    "accessors" : [
        {
            "bufferView" : 0,
            "componentType" : 5126,
            "count" : 6452,
            "max" : [
                0.7971172332763672,
                1.0883257389068604,
                1.537442684173584
            ],
            "min" : [
                -0.802882194519043,
                -0.5116742253303528,
                -1.9125571250915527
            ],
            "type" : "VEC3"
        },
        {
            "bufferView" : 1,
            "componentType" : 5126,
            "count" : 6452,
            "type" : "VEC3"
        },
        {
            "bufferView" : 2,
            "componentType" : 5126,
            "count" : 6452,
            "type" : "VEC2"
        },
        {
            "bufferView" : 3,
            "componentType" : 5123,
            "count" : 9372,
            "type" : "SCALAR"
        }
    ],
    "bufferViews" : [
        {
            "buffer" : 0,
            "byteLength" : 77424,
            "byteOffset" : 0
        },
        {
            "buffer" : 0,
            "byteLength" : 77424,
            "byteOffset" : 77424
        },
        {
            "buffer" : 0,
            "byteLength" : 51616,
            "byteOffset" : 154848
        },
        {
            "buffer" : 0,
            "byteLength" : 18744,
            "byteOffset" : 206464
        }
    ],
    "samplers" : [
        {
            "magFilter" : 9728,
            "minFilter" : 9984
        }
    ],
    "buffers" : [
        {
            "byteLength" : 225208,
            "uri" : "TrashTruck.bin"
        }
    ]
}
