{
    "asset" : {
        "generator" : "Khronos glTF Blender I/O v3.2.43",
        "version" : "2.0"
    },
    "scene" : 0,
    "scenes" : [
        {
            "name" : "Scene",
            "nodes" : [
                0
            ]
        }
    ],
    "nodes" : [
        {
            "mesh" : 0,
            "name" : "Taxi",
            "scale" : [
                1.768841028213501,
                1.768841028213501,
                1.768841028213501
            ],
            "translation" : [
                0,
                0.7639389634132385,
                0
            ]
        }
    ],
    "materials" : [
        {
            "doubleSided" : true,
            "name" : "colormap.021",
            "pbrMetallicRoughness" : {
                "baseColorTexture" : {
                    "index" : 0
                },
                "metallicFactor" : 0
            }
        }
    ],
    "meshes" : [
        {
            "name" : "wheel-front-right.007",
            "primitives" : [
                {
                    "attributes" : {
                        "POSITION" : 0,
                        "NORMAL" : 1,
                        "TEXCOORD_0" : 2
                    },
                    "indices" : 3,
                    "material" : 0
                }
            ]
        }
    ],
    "textures" : [
        {
            "sampler" : 0,
            "source" : 0
        }
    ],
    "images" : [
        {
            "mimeType" : "image/png",
            "name" : "colormap",
            "uri" : "colormap.png"
        }
    ],
    "accessors" : [
        {
            "bufferView" : 0,
            "componentType" : 5126,
            "count" : 4579,
            "max" : [
                0.7500115633010864,
                1.1186820268630981,
                1.3403363227844238
            ],
            "min" : [
                -0.7499883770942688,
                -0.3813178241252899,
                -1.409663200378418
            ],
            "type" : "VEC3"
        },
        {
            "bufferView" : 1,
            "componentType" : 5126,
            "count" : 4579,
            "type" : "VEC3"
        },
        {
            "bufferView" : 2,
            "componentType" : 5126,
            "count" : 4579,
            "type" : "VEC2"
        },
        {
            "bufferView" : 3,
            "componentType" : 5123,
            "count" : 6216,
            "type" : "SCALAR"
        }
    ],
    "bufferViews" : [
        {
            "buffer" : 0,
            "byteLength" : 54948,
            "byteOffset" : 0
        },
        {
            "buffer" : 0,
            "byteLength" : 54948,
            "byteOffset" : 54948
        },
        {
            "buffer" : 0,
            "byteLength" : 36632,
            "byteOffset" : 109896
        },
        {
            "buffer" : 0,
            "byteLength" : 12432,
            "byteOffset" : 146528
        }
    ],
    "samplers" : [
        {
            "magFilter" : 9728,
            "minFilter" : 9984
        }
    ],
    "buffers" : [
        {
            "byteLength" : 158960,
            "uri" : "Taxi.bin"
        }
    ]
}
