{
    "asset" : {
        "generator" : "Khronos glTF Blender I/O v3.2.43",
        "version" : "2.0"
    },
    "scene" : 0,
    "scenes" : [
        {
            "name" : "Scene",
            "nodes" : [
                0
            ]
        }
    ],
    "nodes" : [
        {
            "mesh" : 0,
            "name" : "PoliceCar",
            "scale" : [
                1.768841028213501,
                1.768841028213501,
                1.768841028213501
            ],
            "translation" : [
                0,
                0.7639390230178833,
                0
            ]
        }
    ],
    "materials" : [
        {
            "doubleSided" : true,
            "name" : "colormap.010",
            "pbrMetallicRoughness" : {
                "baseColorTexture" : {
                    "index" : 0
                },
                "metallicFactor" : 0
            }
        }
    ],
    "meshes" : [
        {
            "name" : "wheel-front-left.006",
            "primitives" : [
                {
                    "attributes" : {
                        "POSITION" : 0,
                        "NORMAL" : 1,
                        "TEXCOORD_0" : 2
                    },
                    "indices" : 3,
                    "material" : 0
                }
            ]
        }
    ],
    "textures" : [
        {
            "sampler" : 0,
            "source" : 0
        }
    ],
    "images" : [
        {
            "mimeType" : "image/png",
            "name" : "colormap",
            "uri" : "colormap.png"
        }
    ],
    "accessors" : [
        {
            "bufferView" : 0,
            "componentType" : 5126,
            "count" : 5052,
            "max" : [
                0.7499732971191406,
                0.9039233922958374,
                1.4139947891235352
            ],
            "min" : [
                -0.7500264644622803,
                -0.3960765302181244,
                -1.686004638671875
            ],
            "type" : "VEC3"
        },
        {
            "bufferView" : 1,
            "componentType" : 5126,
            "count" : 5052,
            "type" : "VEC3"
        },
        {
            "bufferView" : 2,
            "componentType" : 5126,
            "count" : 5052,
            "type" : "VEC2"
        },
        {
            "bufferView" : 3,
            "componentType" : 5123,
            "count" : 6912,
            "type" : "SCALAR"
        }
    ],
    "bufferViews" : [
        {
            "buffer" : 0,
            "byteLength" : 60624,
            "byteOffset" : 0
        },
        {
            "buffer" : 0,
            "byteLength" : 60624,
            "byteOffset" : 60624
        },
        {
            "buffer" : 0,
            "byteLength" : 40416,
            "byteOffset" : 121248
        },
        {
            "buffer" : 0,
            "byteLength" : 13824,
            "byteOffset" : 161664
        }
    ],
    "samplers" : [
        {
            "magFilter" : 9728,
            "minFilter" : 9984
        }
    ],
    "buffers" : [
        {
            "byteLength" : 175488,
            "uri" : "PoliceCar.bin"
        }
    ]
}
