{
    "asset" : {
        "generator" : "Khronos glTF Blender I/O v3.2.43",
        "version" : "2.0"
    },
    "scene" : 0,
    "scenes" : [
        {
            "name" : "Scene",
            "nodes" : [
                0
            ]
        }
    ],
    "nodes" : [
        {
            "mesh" : 0,
            "name" : "Object_2.005",
            "rotation" : [
                -0.5,
                0.5,
                0.5,
                0.5
            ],
            "scale" : [
                1.1845037937164307,
                1,
                1
            ],
            "translation" : [
                7.62939453125e-06,
                0,
                0
            ]
        }
    ],
    "materials" : [
        {
            "doubleSided" : true,
            "name" : "palette.010",
            "pbrMetallicRoughness" : {
                "baseColorTexture" : {
                    "index" : 0
                },
                "metallicFactor" : 0,
                "metallicRoughnessTexture" : {
                    "index" : 1
                }
            }
        },
        {
            "doubleSided" : true,
            "name" : "palette.011",
            "pbrMetallicRoughness" : {
                "baseColorTexture" : {
                    "index" : 2
                },
                "metallicFactor" : 0,
                "metallicRoughnessTexture" : {
                    "index" : 3
                }
            }
        },
        {
            "doubleSided" : true,
            "name" : "palette.012",
            "pbrMetallicRoughness" : {
                "baseColorTexture" : {
                    "index" : 4
                },
                "metallicFactor" : 0,
                "metallicRoughnessTexture" : {
                    "index" : 5
                }
            }
        },
        {
            "doubleSided" : true,
            "name" : "palette.013",
            "pbrMetallicRoughness" : {
                "baseColorTexture" : {
                    "index" : 6
                },
                "metallicFactor" : 0,
                "metallicRoughnessTexture" : {
                    "index" : 7
                }
            }
        },
        {
            "doubleSided" : true,
            "name" : "palette.008",
            "pbrMetallicRoughness" : {
                "baseColorTexture" : {
                    "index" : 8
                },
                "metallicFactor" : 0,
                "metallicRoughnessTexture" : {
                    "index" : 9
                }
            }
        },
        {
            "doubleSided" : true,
            "name" : "palette.007",
            "pbrMetallicRoughness" : {
                "baseColorTexture" : {
                    "index" : 10
                },
                "metallicFactor" : 0,
                "metallicRoughnessTexture" : {
                    "index" : 11
                }
            }
        },
        {
            "doubleSided" : true,
            "name" : "palette.009",
            "pbrMetallicRoughness" : {
                "baseColorTexture" : {
                    "index" : 12
                },
                "metallicFactor" : 0,
                "metallicRoughnessTexture" : {
                    "index" : 13
                }
            }
        },
        {
            "doubleSided" : true,
            "name" : "palette.005",
            "occlusionTexture" : {
                "index" : 14
            },
            "pbrMetallicRoughness" : {
                "baseColorTexture" : {
                    "index" : 15
                },
                "metallicFactor" : 0,
                "metallicRoughnessTexture" : {
                    "index" : 14
                }
            }
        }
    ],
    "meshes" : [
        {
            "name" : "Object_0.010",
            "primitives" : [
                {
                    "attributes" : {
                        "POSITION" : 0,
                        "NORMAL" : 1,
                        "TEXCOORD_0" : 2
                    },
                    "indices" : 3,
                    "material" : 0
                },
                {
                    "attributes" : {
                        "POSITION" : 4,
                        "NORMAL" : 5,
                        "TEXCOORD_0" : 6
                    },
                    "indices" : 7,
                    "material" : 1
                },
                {
                    "attributes" : {
                        "POSITION" : 8,
                        "NORMAL" : 9,
                        "TEXCOORD_0" : 10
                    },
                    "indices" : 11,
                    "material" : 2
                },
                {
                    "attributes" : {
                        "POSITION" : 12,
                        "NORMAL" : 13,
                        "TEXCOORD_0" : 14
                    },
                    "indices" : 15,
                    "material" : 3
                },
                {
                    "attributes" : {
                        "POSITION" : 16,
                        "NORMAL" : 17,
                        "TEXCOORD_0" : 18
                    },
                    "indices" : 19,
                    "material" : 4
                },
                {
                    "attributes" : {
                        "POSITION" : 20,
                        "NORMAL" : 21,
                        "TEXCOORD_0" : 22
                    },
                    "indices" : 23,
                    "material" : 5
                },
                {
                    "attributes" : {
                        "POSITION" : 24,
                        "NORMAL" : 25,
                        "TEXCOORD_0" : 26
                    },
                    "indices" : 27,
                    "material" : 6
                },
                {
                    "attributes" : {
                        "POSITION" : 28,
                        "NORMAL" : 29,
                        "TEXCOORD_0" : 30
                    },
                    "indices" : 31,
                    "material" : 7
                }
            ]
        }
    ],
    "textures" : [
        {
            "sampler" : 0,
            "source" : 0
        },
        {
            "sampler" : 0,
            "source" : 1
        },
        {
            "sampler" : 0,
            "source" : 0
        },
        {
            "sampler" : 0,
            "source" : 1
        },
        {
            "sampler" : 0,
            "source" : 0
        },
        {
            "sampler" : 0,
            "source" : 1
        },
        {
            "sampler" : 0,
            "source" : 0
        },
        {
            "sampler" : 0,
            "source" : 1
        },
        {
            "sampler" : 0,
            "source" : 0
        },
        {
            "sampler" : 0,
            "source" : 1
        },
        {
            "sampler" : 0,
            "source" : 0
        },
        {
            "sampler" : 0,
            "source" : 1
        },
        {
            "sampler" : 0,
            "source" : 0
        },
        {
            "sampler" : 0,
            "source" : 1
        },
        {
            "sampler" : 0,
            "source" : 1
        },
        {
            "sampler" : 0,
            "source" : 0
        }
    ],
    "images" : [
        {
            "mimeType" : "image/png",
            "name" : "palette_baseColor",
            "uri" : "palette_baseColor.png"
        },
        {
            "mimeType" : "image/png",
            "name" : "palette_metallicRoughness",
            "uri" : "palette_metallicRoughness.png"
        }
    ],
    "accessors" : [
        {
            "bufferView" : 0,
            "componentType" : 5126,
            "count" : 157,
            "max" : [
                -0.00017547607421875,
                0.4029884338378906,
                0.0874670147895813
            ],
            "min" : [
                -1.900177001953125,
                0.2029876708984375,
                -0.11253303289413452
            ],
            "type" : "VEC3"
        },
        {
            "bufferView" : 1,
            "componentType" : 5126,
            "count" : 157,
            "type" : "VEC3"
        },
        {
            "bufferView" : 2,
            "componentType" : 5126,
            "count" : 157,
            "type" : "VEC2"
        },
        {
            "bufferView" : 3,
            "componentType" : 5123,
            "count" : 258,
            "type" : "SCALAR"
        },
        {
            "bufferView" : 4,
            "componentType" : 5126,
            "count" : 195,
            "max" : [
                -0.00017547607421875,
                0.00299072265625,
                0.08746698498725891
            ],
            "min" : [
                -1.900177001953125,
                -0.1970062255859375,
                -0.11253306269645691
            ],
            "type" : "VEC3"
        },
        {
            "bufferView" : 5,
            "componentType" : 5126,
            "count" : 195,
            "type" : "VEC3"
        },
        {
            "bufferView" : 6,
            "componentType" : 5126,
            "count" : 195,
            "type" : "VEC2"
        },
        {
            "bufferView" : 7,
            "componentType" : 5123,
            "count" : 258,
            "type" : "SCALAR"
        },
        {
            "bufferView" : 8,
            "componentType" : 5126,
            "count" : 212,
            "max" : [
                0.00103759765625,
                -0.19701004028320312,
                0.08746856451034546
            ],
            "min" : [
                -1.8989639282226562,
                -0.39701080322265625,
                -0.11253184080123901
            ],
            "type" : "VEC3"
        },
        {
            "bufferView" : 9,
            "componentType" : 5126,
            "count" : 212,
            "type" : "VEC3"
        },
        {
            "bufferView" : 10,
            "componentType" : 5126,
            "count" : 212,
            "type" : "VEC2"
        },
        {
            "bufferView" : 11,
            "componentType" : 5123,
            "count" : 258,
            "type" : "SCALAR"
        },
        {
            "bufferView" : 12,
            "componentType" : 5126,
            "count" : 195,
            "max" : [
                -0.00017547607421875,
                0.20300674438476562,
                0.0874670147895813
            ],
            "min" : [
                -1.900177001953125,
                0.0030059814453125,
                -0.11253303289413452
            ],
            "type" : "VEC3"
        },
        {
            "bufferView" : 13,
            "componentType" : 5126,
            "count" : 195,
            "type" : "VEC3"
        },
        {
            "bufferView" : 14,
            "componentType" : 5126,
            "count" : 195,
            "type" : "VEC2"
        },
        {
            "bufferView" : 15,
            "componentType" : 5123,
            "count" : 258,
            "type" : "SCALAR"
        },
        {
            "bufferView" : 16,
            "componentType" : 5126,
            "count" : 167,
            "max" : [
                1.9001312255859375,
                0.4029884338378906,
                0.0874670147895813
            ],
            "min" : [
                0.0001373291015625,
                0.2029876708984375,
                -0.11253303289413452
            ],
            "type" : "VEC3"
        },
        {
            "bufferView" : 17,
            "componentType" : 5126,
            "count" : 167,
            "type" : "VEC3"
        },
        {
            "bufferView" : 18,
            "componentType" : 5126,
            "count" : 167,
            "type" : "VEC2"
        },
        {
            "bufferView" : 19,
            "componentType" : 5123,
            "count" : 258,
            "type" : "SCALAR"
        },
        {
            "bufferView" : 20,
            "componentType" : 5126,
            "count" : 193,
            "max" : [
                1.9001312255859375,
                0.00299072265625,
                0.08746698498725891
            ],
            "min" : [
                0.00012969970703125,
                -0.1970062255859375,
                -0.11253306269645691
            ],
            "type" : "VEC3"
        },
        {
            "bufferView" : 21,
            "componentType" : 5126,
            "count" : 193,
            "type" : "VEC3"
        },
        {
            "bufferView" : 22,
            "componentType" : 5126,
            "count" : 193,
            "type" : "VEC2"
        },
        {
            "bufferView" : 23,
            "componentType" : 5123,
            "count" : 258,
            "type" : "SCALAR"
        },
        {
            "bufferView" : 24,
            "componentType" : 5126,
            "count" : 206,
            "max" : [
                1.9013442993164062,
                -0.19701004028320312,
                0.08746856451034546
            ],
            "min" : [
                0.0013427734375,
                -0.39701080322265625,
                -0.11253184080123901
            ],
            "type" : "VEC3"
        },
        {
            "bufferView" : 25,
            "componentType" : 5126,
            "count" : 206,
            "type" : "VEC3"
        },
        {
            "bufferView" : 26,
            "componentType" : 5126,
            "count" : 206,
            "type" : "VEC2"
        },
        {
            "bufferView" : 27,
            "componentType" : 5123,
            "count" : 258,
            "type" : "SCALAR"
        },
        {
            "bufferView" : 28,
            "componentType" : 5126,
            "count" : 191,
            "max" : [
                1.9001312255859375,
                0.20300674438476562,
                0.0874670147895813
            ],
            "min" : [
                0.00012969970703125,
                0.0030059814453125,
                -0.11253303289413452
            ],
            "type" : "VEC3"
        },
        {
            "bufferView" : 29,
            "componentType" : 5126,
            "count" : 191,
            "type" : "VEC3"
        },
        {
            "bufferView" : 30,
            "componentType" : 5126,
            "count" : 191,
            "type" : "VEC2"
        },
        {
            "bufferView" : 31,
            "componentType" : 5123,
            "count" : 258,
            "type" : "SCALAR"
        }
    ],
    "bufferViews" : [
        {
            "buffer" : 0,
            "byteLength" : 1884,
            "byteOffset" : 0
        },
        {
            "buffer" : 0,
            "byteLength" : 1884,
            "byteOffset" : 1884
        },
        {
            "buffer" : 0,
            "byteLength" : 1256,
            "byteOffset" : 3768
        },
        {
            "buffer" : 0,
            "byteLength" : 516,
            "byteOffset" : 5024
        },
        {
            "buffer" : 0,
            "byteLength" : 2340,
            "byteOffset" : 5540
        },
        {
            "buffer" : 0,
            "byteLength" : 2340,
            "byteOffset" : 7880
        },
        {
            "buffer" : 0,
            "byteLength" : 1560,
            "byteOffset" : 10220
        },
        {
            "buffer" : 0,
            "byteLength" : 516,
            "byteOffset" : 11780
        },
        {
            "buffer" : 0,
            "byteLength" : 2544,
            "byteOffset" : 12296
        },
        {
            "buffer" : 0,
            "byteLength" : 2544,
            "byteOffset" : 14840
        },
        {
            "buffer" : 0,
            "byteLength" : 1696,
            "byteOffset" : 17384
        },
        {
            "buffer" : 0,
            "byteLength" : 516,
            "byteOffset" : 19080
        },
        {
            "buffer" : 0,
            "byteLength" : 2340,
            "byteOffset" : 19596
        },
        {
            "buffer" : 0,
            "byteLength" : 2340,
            "byteOffset" : 21936
        },
        {
            "buffer" : 0,
            "byteLength" : 1560,
            "byteOffset" : 24276
        },
        {
            "buffer" : 0,
            "byteLength" : 516,
            "byteOffset" : 25836
        },
        {
            "buffer" : 0,
            "byteLength" : 2004,
            "byteOffset" : 26352
        },
        {
            "buffer" : 0,
            "byteLength" : 2004,
            "byteOffset" : 28356
        },
        {
            "buffer" : 0,
            "byteLength" : 1336,
            "byteOffset" : 30360
        },
        {
            "buffer" : 0,
            "byteLength" : 516,
            "byteOffset" : 31696
        },
        {
            "buffer" : 0,
            "byteLength" : 2316,
            "byteOffset" : 32212
        },
        {
            "buffer" : 0,
            "byteLength" : 2316,
            "byteOffset" : 34528
        },
        {
            "buffer" : 0,
            "byteLength" : 1544,
            "byteOffset" : 36844
        },
        {
            "buffer" : 0,
            "byteLength" : 516,
            "byteOffset" : 38388
        },
        {
            "buffer" : 0,
            "byteLength" : 2472,
            "byteOffset" : 38904
        },
        {
            "buffer" : 0,
            "byteLength" : 2472,
            "byteOffset" : 41376
        },
        {
            "buffer" : 0,
            "byteLength" : 1648,
            "byteOffset" : 43848
        },
        {
            "buffer" : 0,
            "byteLength" : 516,
            "byteOffset" : 45496
        },
        {
            "buffer" : 0,
            "byteLength" : 2292,
            "byteOffset" : 46012
        },
        {
            "buffer" : 0,
            "byteLength" : 2292,
            "byteOffset" : 48304
        },
        {
            "buffer" : 0,
            "byteLength" : 1528,
            "byteOffset" : 50596
        },
        {
            "buffer" : 0,
            "byteLength" : 516,
            "byteOffset" : 52124
        }
    ],
    "samplers" : [
        {
            "magFilter" : 9729,
            "minFilter" : 9987
        }
    ],
    "buffers" : [
        {
            "byteLength" : 52640,
            "uri" : "Log.bin"
        }
    ]
}
