{
    "asset" : {
        "generator" : "Khronos glTF Blender I/O v3.2.43",
        "version" : "2.0"
    },
    "scene" : 0,
    "scenes" : [
        {
            "name" : "Scene",
            "nodes" : [
                0
            ]
        }
    ],
    "nodes" : [
        {
            "mesh" : 0,
            "name" : "Road",
            "rotation" : [
                -0.5,
                -0.5000000596046448,
                -0.4999999403953552,
                0.5
            ],
            "scale" : [
                1,
                2.069999933242798,
                1
            ]
        }
    ],
    "materials" : [
        {
            "doubleSided" : true,
            "name" : "palette.018",
            "pbrMetallicRoughness" : {
                "baseColorTexture" : {
                    "index" : 0
                },
                "metallicFactor" : 0,
                "metallicRoughnessTexture" : {
                    "index" : 1
                }
            }
        },
        {
            "doubleSided" : true,
            "name" : "palette.001",
            "pbrMetallicRoughness" : {
                "baseColorTexture" : {
                    "index" : 2
                },
                "metallicFactor" : 0,
                "metallicRoughnessTexture" : {
                    "index" : 3
                }
            }
        }
    ],
    "meshes" : [
        {
            "name" : "Object_0.028",
            "primitives" : [
                {
                    "attributes" : {
                        "POSITION" : 0,
                        "NORMAL" : 1,
                        "TEXCOORD_0" : 2
                    },
                    "indices" : 3,
                    "material" : 0
                },
                {
                    "attributes" : {
                        "POSITION" : 4,
                        "NORMAL" : 5,
                        "TEXCOORD_0" : 6
                    },
                    "indices" : 7,
                    "material" : 1
                }
            ]
        }
    ],
    "textures" : [
        {
            "sampler" : 0,
            "source" : 0
        },
        {
            "sampler" : 0,
            "source" : 1
        },
        {
            "sampler" : 0,
            "source" : 0
        },
        {
            "sampler" : 0,
            "source" : 1
        }
    ],
    "images" : [
        {
            "mimeType" : "image/png",
            "name" : "palette_baseColor",
            "uri" : "palette_baseColor.png"
        },
        {
            "mimeType" : "image/png",
            "name" : "palette_metallicRoughness",
            "uri" : "palette_metallicRoughness.png"
        }
    ],
    "accessors" : [
        {
            "bufferView" : 0,
            "componentType" : 5126,
            "count" : 10461,
            "max" : [
                32.527801513671875,
                1.4880057573318481,
                0.11697948724031448
            ],
            "min" : [
                -28.90541648864746,
                -1.5119942426681519,
                -0.08302738517522812
            ],
            "type" : "VEC3"
        },
        {
            "bufferView" : 1,
            "componentType" : 5126,
            "count" : 10461,
            "type" : "VEC3"
        },
        {
            "bufferView" : 2,
            "componentType" : 5126,
            "count" : 10461,
            "type" : "VEC2"
        },
        {
            "bufferView" : 3,
            "componentType" : 5123,
            "count" : 16320,
            "type" : "SCALAR"
        },
        {
            "bufferView" : 4,
            "componentType" : 5126,
            "count" : 622,
            "max" : [
                -28.4917049407959,
                1.4880057573318481,
                0.11697948724031448
            ],
            "min" : [
                -32.49170684814453,
                -1.5119942426681519,
                -0.08302053809165955
            ],
            "type" : "VEC3"
        },
        {
            "bufferView" : 5,
            "componentType" : 5126,
            "count" : 622,
            "type" : "VEC3"
        },
        {
            "bufferView" : 6,
            "componentType" : 5126,
            "count" : 622,
            "type" : "VEC2"
        },
        {
            "bufferView" : 7,
            "componentType" : 5123,
            "count" : 960,
            "type" : "SCALAR"
        }
    ],
    "bufferViews" : [
        {
            "buffer" : 0,
            "byteLength" : 125532,
            "byteOffset" : 0
        },
        {
            "buffer" : 0,
            "byteLength" : 125532,
            "byteOffset" : 125532
        },
        {
            "buffer" : 0,
            "byteLength" : 83688,
            "byteOffset" : 251064
        },
        {
            "buffer" : 0,
            "byteLength" : 32640,
            "byteOffset" : 334752
        },
        {
            "buffer" : 0,
            "byteLength" : 7464,
            "byteOffset" : 367392
        },
        {
            "buffer" : 0,
            "byteLength" : 7464,
            "byteOffset" : 374856
        },
        {
            "buffer" : 0,
            "byteLength" : 4976,
            "byteOffset" : 382320
        },
        {
            "buffer" : 0,
            "byteLength" : 1920,
            "byteOffset" : 387296
        }
    ],
    "samplers" : [
        {
            "magFilter" : 9729,
            "minFilter" : 9987
        }
    ],
    "buffers" : [
        {
            "byteLength" : 389216,
            "uri" : "Road.bin"
        }
    ]
}
